<svg version="1.2" xmlns="http://www.w3.org/2000/svg" viewBox="0 0 1024 1024" width="1024" height="1024">
	<title>59NqyD01</title>
	<style>
		.s0 { fill: #00ae62 } 
	</style>
	<g>
		<path id="Path 0" class="s0" d="m463.4 54.3c-11.8 11.3-25.5 38.6-62.3 125.2-25.9 61-49 115.3-51.2 120.8-2.9 7-11.2 12.1-27.4 16.8-12.8 3.7-42.2 8.6-65.4 10.9-23.2 2.3-76 7.5-117.5 11.5-60.6 5.9-78.3 9.2-90.5 16.8-8.3 5.2-17.8 13.4-21 18.3-3.6 5.3-6 21.1-5.9 39.9l0.1 31c49.7 48.3 81.1 76.4 101.8 93.6 20.7 17.2 53.3 46.1 72.5 64.2 34.4 32.6 34.7 33 34.6 55-0.1 12.2-2.4 31.1-5 42.1-2.7 11-7.7 33.9-11.2 51-3.5 17-12.9 62.5-20.9 101.1l-14.6 70.1c18.1 33.9 27.9 44.5 37.7 49.6 11.2 5.7 23 7.6 42.1 6.5 23.8-1.2 30.7-4.1 65.4-26.8 21.3-14 40.3-25.4 42.1-25.3 1.9 0.1 7.3-4 12.2-9 4.9-5 10.4-9.1 12.2-9 1.8 0.1 18.8-9.8 37.7-22 18.9-12.1 43.8-27.1 55.4-33.2 11.6-6.1 25-11.1 29.9-11.1 4.9 0 21.3 8.6 36.6 19.1 15.2 10.5 40.7 26.3 56.5 35.1 15.9 8.7 31.8 19.1 35.5 23.1 3.6 4 8.1 7.2 9.9 7.1 1.9-0.1 14.8 7.1 28.9 16 14 8.9 31.4 20.2 38.7 25.1 8.5 5.7 23.1 9.6 39.9 10.7 19.7 1.3 30.7-0.4 42.2-6.3 10.7-5.6 18.7-14.9 26-30.2l10.6-22.2c-11.6-58.4-17.8-88.3-21.1-104.1-3.3-15.9-9.3-44.8-13.2-64.3-4-19.5-8.9-42.5-11.1-51-2.1-8.5-5.1-25.5-6.7-37.7l-3-22.1c60.7-55.8 102.2-92.9 131.5-118.4 29.3-25.5 59.7-53.7 67.6-62.6 13.2-15 14.4-18.8 14.4-46.2 0.1-19.4-2.3-33.5-6.6-39.9-3.7-5.5-14.2-13.8-23.3-18.4-9.4-4.7-35.9-10.5-61-13.4-24.4-2.8-69.2-7.1-99.7-9.6-30.5-2.5-72.2-8-92.7-12.1-22-4.4-38.7-10.2-40.9-14.1-2.1-3.7-22-49.6-44.2-102-22.3-52.4-46-106.3-52.6-119.7-6.7-13.4-17.9-28.9-25-34.5-10.5-8.3-18.1-10.1-42.8-10-27.7 0.2-31.2 1.3-45.2 14.6z"/>
	</g>
</svg>